<?xml version="1.0" encoding="utf-8"?>
<!-- Generator: Adobe Illustrator 22.0.1, SVG Export Plug-In . SVG Version: 6.00 Build 0)  -->
<svg version="1.1" xmlns="http://www.w3.org/2000/svg" xmlns:xlink="http://www.w3.org/1999/xlink" x="0px" y="0px"
	 viewBox="0 0 1228.5 1287.3" style="enable-background:new 0 0 1228.5 1287.3;" xml:space="preserve">
<style type="text/css">
	.st0{fill-rule:evenodd;clip-rule:evenodd;fill:url(#SVGID_1_);}
	.st1{fill-rule:evenodd;clip-rule:evenodd;fill:#E6E7E8;}
	.st2{fill-rule:evenodd;clip-rule:evenodd;fill:#A7A9AC;}
	.st3{fill-rule:evenodd;clip-rule:evenodd;fill:#515151;}
	.st4{fill-rule:evenodd;clip-rule:evenodd;fill:#BCBEC0;}
	.st5{fill:#715144;}
	.st6{fill:url(#SVGID_2_);}
	.st7{fill:none;stroke:url(#SVGID_3_);}
	.st8{fill:#603913;}
	.st9{fill:#A97C50;}
	.st10{opacity:0.4;fill:#EF7A2B;}
	.st11{fill:url(#SVGID_4_);}
	.st12{fill:#0E1F2D;}
	.st13{fill:url(#SVGID_5_);}
	.st14{fill:#754C29;}
	.st15{fill:url(#SVGID_6_);}
	.st16{fill:url(#SVGID_7_);}
	.st17{fill-rule:evenodd;clip-rule:evenodd;fill:#FFFFFF;}
	.st18{fill:#E9D9B8;}
	.st19{fill-rule:evenodd;clip-rule:evenodd;fill:#808285;}
	.st20{fill:#A7A9AC;}
	.st21{fill:#808285;}
	.st22{fill:#007B74;}
	.st23{fill:#D6CBAD;}
	.st24{fill:#42292F;}
	.st25{fill:#2F343B;}
	.st26{opacity:0.9;fill:#588DBB;}
	.st27{fill:#FFFFFF;}
	.st28{fill:#594A42;}
	.st29{fill:#BCBEC0;}
	.st30{fill:#E3F4FC;}
	.st31{fill-rule:evenodd;clip-rule:evenodd;fill:url(#SVGID_8_);}
</style>
<g id="Computer">
	<linearGradient id="SVGID_1_" gradientUnits="userSpaceOnUse" x1="175.9027" y1="687.5593" x2="441.9027" y2="626.5593">
		<stop  offset="0" style="stop-color:#27AAE1;stop-opacity:0.3"/>
		<stop  offset="1" style="stop-color:#FFFFFF;stop-opacity:0"/>
	</linearGradient>
	<polygon class="st0" points="185.1,750.4 165.1,627.1 495.2,468 520.6,754.8 	"/>
	<g>
		<path class="st1" d="M322.6,617.4H173.9c-9.7,0-19.2,8-17.6,17.6l17,99.1c1.6,9.5,7.9,17.6,17.6,17.6h148.8
			c9.7,0,19.2-8,17.6-17.6l-17-99.1C338.5,625.5,332.3,617.4,322.6,617.4"/>
		<path class="st2" d="M316.1,623.4H174c-9.2,0-18.3,7.7-16.8,16.8l16.2,94.7c1.6,9.1,7.6,16.8,16.8,16.8h142.1
			c9.2,0,18.3-7.7,16.8-16.8l-16.2-94.7C331.3,631.1,325.4,623.4,316.1,623.4"/>
		<path class="st2" d="M432.6,751.6H190.9c0,5.5,4.5,10,10,10h231.7V751.6z"/>
		<path class="st3" d="M310.4,749h-8.7c-1.5,0-2.8,1.3-2.8,2.8l0,0c0,1.5,1.3,2.8,2.8,2.8h8.7V749z"/>
		<path class="st3" d="M310.4,749h8.7c1.5,0,2.8,1.3,2.8,2.8l0,0c0,1.5-1.3,2.8-2.8,2.8h-8.7V749z"/>
		<path class="st3" d="M217.3,749h-8.7c-1.5,0-2.8,1.3-2.8,2.8l0,0c0,1.5,1.3,2.8,2.8,2.8h8.7V749z"/>
		<path class="st3" d="M217.3,749h8.7c1.5,0,2.8,1.3,2.8,2.8l0,0c0,1.5-1.3,2.8-2.8,2.8h-8.7V749z"/>
		<path class="st1" d="M446.8,751.6H342.8c0,5.5,4.5,10,10,10h84C442.3,761.6,446.8,757.1,446.8,751.6z"/>
		<path class="st3" d="M423.3,755h8c1,0,1.8,0.8,1.8,1.8s-0.8,1.8-1.8,1.8h-8c-1,0-1.8-0.8-1.8-1.8S422.3,755,423.3,755"/>
		<path class="st3" d="M396.6,755h13.8c1,0,1.8,0.8,1.8,1.8s-0.8,1.8-1.8,1.8h-13.8c-1,0-1.8-0.8-1.8-1.8S395.6,755,396.6,755"/>
		<path class="st3" d="M374.6,753.6h7.6c1.7,0,3.1,1.4,3.1,3.1l0,0c0,1.7-1.4,3.1-3.1,3.1h-7.6c-1.7,0-3.1-1.4-3.1-3.1l0,0
			C371.5,755,372.9,753.6,374.6,753.6"/>
		<path class="st4" d="M208.8,623.4c0,0-25.4,85.8,80.3,128.3h-60.3c-0.1-1.5-1.3-2.6-2.8-2.6h-8.7h-8.7c-1.5,0-2.7,1.2-2.8,2.6
			h-14.9h-0.6c-9.2,0-15.2-7.7-16.8-16.8c-0.1-0.3-0.1-0.5-0.1-0.8l-7.8-45.4c0,0,0,0,0,0l-0.6-3.7l-2-11.5l-5.7-33.3
			c-1.6-9.1,7.6-16.8,16.8-16.8H208.8z"/>
	</g>
</g>
<g id="Desk">
	<g>
		<g>
			<g>
				<rect x="767.9" y="847.3" class="st5" width="46.7" height="81"/>
				<path class="st5" d="M730.6,1231.3H852v-26.3H746.3c-8.7,0-15.7,7-15.7,15.7V1231.3z"/>
				<rect x="776.3" y="928.3" class="st5" width="29.9" height="51.6"/>
				<rect x="785.3" y="979.9" class="st5" width="12" height="243.5"/>
			</g>
			<g>
				<linearGradient id="SVGID_2_" gradientUnits="userSpaceOnUse" x1="843.8545" y1="851.7163" x2="843.8545" y2="734.3766">
					<stop  offset="0" style="stop-color:#754C29"/>
					<stop  offset="1" style="stop-color:#A97C50"/>
				</linearGradient>
				<path class="st6" d="M960.1,556.3v241.2c0,32.7-26.5,59.2-59.2,59.2H774.6c-5.8,0-11.3-2-15.7-5.7c-8.6-7.2-18.3-16.7-27.4-28.9
					c-12.8-96.3,8.9-238.1,28.9-286.8c3.4-8.4,11.3-14.2,20.3-15.1c82.1-8.3,138.6-1.9,158.2,4.8"/>
				<linearGradient id="SVGID_3_" gradientUnits="userSpaceOnUse" x1="727.1001" y1="686.5054" x2="960.6089" y2="686.5054">
					<stop  offset="0" style="stop-color:#27AAE1;stop-opacity:0.3"/>
					<stop  offset="1" style="stop-color:#FFFFFF;stop-opacity:0"/>
				</linearGradient>
				<path class="st7" d="M960.1,556.3v241.2c0,32.7-26.5,59.2-59.2,59.2H774.6c-5.8,0-11.3-2-15.7-5.7c-8.6-7.2-18.3-16.7-27.4-28.9
					c-12.8-96.3,8.9-238.1,28.9-286.8c3.4-8.4,11.3-14.2,20.3-15.1c82.1-8.3,138.6-1.9,158.2,4.8"/>
			</g>
			<g>
				<g>
					<g>
						<path class="st8" d="M938.8,525c-12.6,5.3-21.3,16.3-21.3,29.1v280.5c0,12.8,8.7,23.8,21.3,29.1c12.6-5.3,21.3-16.3,21.3-29.1
							V554.1C960.1,541.3,951.4,530.2,938.8,525z"/>
					</g>
				</g>
			</g>
			<g>
				<path class="st9" d="M611.6,874.6L611.6,874.6c0-11.9,9.6-21.6,21.5-21.6h291.7c11.9,0,21.6,9.6,21.6,21.6l0,0
					c0,11.9-9.6,21.6-21.6,21.6H633.2C621.3,896.1,611.6,886.5,611.6,874.6z"/>
			</g>
			<path class="st10" d="M695.8,590.9"/>
		</g>
		<g>
			<g>
				<g>
					<linearGradient id="SVGID_4_" gradientUnits="userSpaceOnUse" x1="1001.7951" y1="799.3804" x2="1001.7951" y2="910.7317">
						<stop  offset="0" style="stop-color:#231F20"/>
						<stop  offset="1" style="stop-color:#0E1F2D"/>
					</linearGradient>
					<rect x="984.7" y="799.4" class="st11" width="34.3" height="391.2"/>
					<rect x="994.7" y="945.7" class="st12" width="14.2" height="273.9"/>
				</g>
			</g>
			<g>
				<g>
					<linearGradient id="SVGID_5_" gradientUnits="userSpaceOnUse" x1="301.3354" y1="800.7163" x2="301.3354" y2="937.2245">
						<stop  offset="0" style="stop-color:#231F20"/>
						<stop  offset="1" style="stop-color:#0E1F2D"/>
					</linearGradient>
					<rect x="284.2" y="799.4" class="st13" width="34.3" height="391.2"/>
					<rect x="294.3" y="945.7" class="st12" width="14.2" height="273.9"/>
				</g>
			</g>
			<rect x="151.7" y="771.3" class="st12" width="912.8" height="28.1"/>
			<polygon class="st9" points="1151.6,760.9 1151.6,778.5 852,781.6 852,760.9 			"/>
			<rect x="67.3" y="760.9" class="st14" width="784.7" height="20.7"/>
			<g>
				<g>
					<linearGradient id="SVGID_6_" gradientUnits="userSpaceOnUse" x1="917.3732" y1="800.3829" x2="917.3732" y2="917.7182">
						<stop  offset="0" style="stop-color:#231F20"/>
						<stop  offset="1" style="stop-color:#0E1F2D"/>
					</linearGradient>
					<rect x="900.2" y="799.4" class="st15" width="34.3" height="418.8"/>
					<rect x="910.3" y="973.2" class="st12" width="14.2" height="273.9"/>
				</g>
			</g>
			<g>
				<g>
					<linearGradient id="SVGID_7_" gradientUnits="userSpaceOnUse" x1="226.5234" y1="797.2163" x2="226.5234" y2="981.2333">
						<stop  offset="0" style="stop-color:#231F20"/>
						<stop  offset="1" style="stop-color:#0E1F2D"/>
					</linearGradient>
					<rect x="209.4" y="799.4" class="st16" width="34.3" height="418.8"/>
					<rect x="219.5" y="973.2" class="st12" width="14.2" height="273.9"/>
				</g>
			</g>
		</g>
		<g>
			<g>
				<g>
					<path class="st17" d="M538.8,587.5L538.8,587.5l-0.3,0C538.6,587.5,538.7,587.5,538.8,587.5z"/>
				</g>
			</g>
		</g>
		<g>
			<g>
				<g>
					<path class="st18" d="M785.6,0.2c0-0.4,0.3-0.7,0.7-0.7c0.4,0,0.7,0.3,0.7,0.7"/>
				</g>
			</g>
		</g>
	</g>
</g>
<g id="wacom">
	<path class="st19" d="M698.4,760.9H537.5c-2.3,0-4.2-1.9-4.2-4.2v-0.9c0-2.3,1.9-4.2,4.2-4.2h160.9c2.3,0,4.2,1.9,4.2,4.2v0.9
		C702.6,759,700.7,760.9,698.4,760.9z"/>
	<path class="st2" d="M641.1,760.9H480.2c-2.3,0-4.2-1.9-4.2-4.2v-0.9c0-2.3,1.9-4.2,4.2-4.2h160.9c2.3,0,4.2,1.9,4.2,4.2v0.9
		C645.3,759,643.4,760.9,641.1,760.9z"/>
	<path class="st20" d="M759,760.9h-6.8c-4.3,0-7.7-3.5-7.7-7.7V732h22.3v21.2C766.7,757.5,763.2,760.9,759,760.9z"/>
	<path class="st21" d="M754.1,697.5h2.9c1.1,0,2,0.9,2,2V732h-6.8v-32.5C752.1,698.3,753,697.5,754.1,697.5z"/>
	<path class="st21" d="M755.6,690.3L755.6,690.3c1.1,0,2,0.9,2,2v5.2h-3.9v-5.2C753.6,691.2,754.5,690.3,755.6,690.3z"/>
</g>
<g id="Books">
	<g>
		<g>
			<path class="st22" d="M1099.1,698.3h-73c3.5,2.9,5.7,7.3,5.7,12.2c0,4.9-2.2,9.3-5.7,12.2h73c1,0,1.7,0.8,1.7,1.9
				c0,1-0.8,1.9-1.7,1.9h-83.5c0,0-0.1,0-0.1,0c-8.6-0.2-15.6-7.2-15.6-15.9c0-8.7,6.9-15.7,15.6-15.9c0,0,0,0,0.1,0h83.5
				c1,0,1.7,0.8,1.7,1.9C1100.8,697.5,1100,698.3,1099.1,698.3z"/>
			<path class="st23" d="M1015.4,722.7L1015.4,722.7c-6.5-0.2-11.8-5.6-11.8-12.2c0-6.6,5.2-11.9,11.8-12.2v0h80.8v24.4H1015.4z"/>
		</g>
		<g>
			<path class="st24" d="M1112.8,666.5h-73.1c3.5,2.9,5.7,7.3,5.7,12.2c0,4.9-2.2,9.3-5.7,12.2h73.1c1,0,1.7,0.8,1.7,1.9
				c0,1-0.8,1.9-1.7,1.9h-83.5c0,0-0.1,0-0.1,0c-8.6-0.2-15.6-7.2-15.6-15.9c0-8.7,6.9-15.7,15.6-15.9c0,0,0,0,0.1,0h83.5
				c1,0,1.7,0.8,1.7,1.9C1114.5,665.6,1113.7,666.5,1112.8,666.5z"/>
			<path class="st23" d="M1029.1,690.9L1029.1,690.9c-6.5-0.2-11.8-5.6-11.8-12.2c0-6.6,5.2-11.9,11.8-12.2v0h80.8v24.4H1029.1z"/>
		</g>
		<g>
			<rect x="984.7" y="726.6" class="st25" width="143.9" height="33.5"/>
			<path class="st26" d="M1107.2,743.4c0,3.1,2.4,5.6,5.4,5.6c3,0,5.4-2.5,5.4-5.6c0-3.1-2.4-5.6-5.4-5.6
				C1109.6,737.7,1107.2,740.2,1107.2,743.4z"/>
			<rect x="1013.8" y="737.7" class="st26" width="87.2" height="11.3"/>
			<rect x="1002.6" y="737.7" class="st26" width="4.7" height="11.3"/>
			<rect x="995.2" y="737.7" class="st26" width="4.7" height="11.3"/>
		</g>
	</g>
</g>
<g id="Hat">
</g>
<g id="Coffee">
	<g>
		<path class="st27" d="M855.5,737.7c0,6.6,5.3,11.9,11.9,11.9c6.6,0,11.9-5.3,11.9-11.9c0-6.6-5.4-11.9-11.9-11.9
			C860.8,725.8,855.5,731.2,855.5,737.7z M862.3,737.7c0-2.8,2.3-5.1,5.1-5.1c2.8,0,5.1,2.3,5.1,5.1c0,2.8-2.3,5.1-5.1,5.1
			C864.6,742.9,862.3,740.6,862.3,737.7z"/>
		<path class="st27" d="M823.9,759.1h27c6.1,0,11.1-5,11.1-11.1v-25.6h-49.2V748C812.8,754.1,817.8,759.1,823.9,759.1z"/>
		<g>
			<polygon class="st28" points="824.5,748.1 835.5,748.1 835.5,738.7 832.7,735 827.3,735 824.5,738.7 			"/>
			<path class="st29" d="M830,737.4c0.2,0,0.3-0.1,0.3-0.3v-15.4c0-0.2-0.1-0.3-0.3-0.3c-0.2,0-0.3,0.1-0.3,0.3v15.4
				C829.6,737.3,829.8,737.4,830,737.4z"/>
		</g>
		
			<rect x="796.3" y="758.1" transform="matrix(-1 -4.491397e-11 4.491397e-11 -1 1674.8287 1519.0488)" class="st30" width="82.2" height="2.8"/>
	</g>
</g>
<g id="LIGHT">
	<path class="st21" d="M498.3,751.6"/>
	<linearGradient id="SVGID_8_" gradientUnits="userSpaceOnUse" x1="574.5629" y1="751.1729" x2="574.5629" y2="622.1535">
		<stop  offset="0" style="stop-color:#27AAE1;stop-opacity:0.3"/>
		<stop  offset="1" style="stop-color:#FFFFFF;stop-opacity:0"/>
	</linearGradient>
	<polygon class="st31" points="679.3,751.8 507.8,751.8 342.8,617.4 806.3,617.4 	"/>
</g>
</svg>
